<?xml version="1.0" standalone="no"?>
<!DOCTYPE svg PUBLIC "-//W3C//DTD SVG 20010904//EN"
 "http://www.w3.org/TR/2001/REC-SVG-20010904/DTD/svg10.dtd">
<svg version="1.0" xmlns="http://www.w3.org/2000/svg"
 width="512.000000pt" height="512.000000pt" viewBox="0 0 512.000000 512.000000"
 preserveAspectRatio="xMidYMid meet">

<g transform="translate(0.000000,512.000000) scale(0.100000,-0.100000)"
fill="#000000" stroke="none">
<path d="M0 2560 l0 -2560 2560 0 2560 0 0 2560 0 2560 -2560 0 -2560 0 0
-2560z m2061 128 c178 -60 261 -294 169 -478 -28 -56 -109 -125 -169 -145
-133 -44 -274 25 -340 164 -22 47 -26 70 -26 146 0 81 3 97 32 155 37 76 69
109 138 144 56 28 137 34 196 14z m1197 -14 c62 -31 106 -79 141 -154 22 -46
26 -69 26 -145 0 -76 -4 -98 -27 -147 -29 -63 -89 -127 -146 -154 -57 -28
-164 -26 -225 6 -165 84 -218 333 -106 497 80 116 219 156 337 97z"/>
</g>
</svg>
